<?xml version="1.0" encoding="utf-8"?>
<!-- Generator: Adobe Illustrator 24.1.1, SVG Export Plug-In . SVG Version: 6.00 Build 0)  -->
<svg version="1.1" id="Camada_1" xmlns="http://www.w3.org/2000/svg" xmlns:xlink="http://www.w3.org/1999/xlink" x="0px" y="0px"
	 viewBox="0 0 2500 2500" style="enable-background:new 0 0 2500 2500;" xml:space="preserve">
<style type="text/css">
	.st0{fill:#232527;}
	.st1{fill:#FFFFFF;}
</style>
<g>
	<path class="st0" d="M0,0h2500v2500H0V0z"/>
	<path class="st1" d="M596.6,836.1c2.1-20.6-5.8-41-21.2-54.9L418.6,592.3v-28.2h486.9l376.3,825.4l330.9-825.4h464.2v28.2
		l-134.1,128.6c-11.6,8.8-17.3,23.3-14.9,37.6V1703c-2.4,14.3,3.3,28.8,14.9,37.6l130.9,128.6v28.2h-658.6v-28.2l135.6-131.7
		c13.3-13.3,13.3-17.2,13.3-37.6V936.4L1187,1894.3h-51L696.9,936.4v642c-3.7,27,5.3,54.2,24.3,73.7l176.4,214v28.2H397.4v-28.2
		l176.4-214c18.9-19.5,27.3-46.9,22.7-73.7V836.1z"/>
</g>
</svg>
